<?xml version="1.0" encoding="UTF-8"?>
<svg fill="#ffffff" stroke="#ffffff" version="1.1" viewBox="-7 0 32 32" xmlns="http://www.w3.org/2000/svg">
<g>
<title>instagram</title>
<path d="m14.48 11.28c0 0.48-0.4 0.84-0.84 0.84-0.48 0-0.84-0.4-0.84-0.84 0-0.48 0.4-0.84 0.84-0.84 0.44-0.04 0.84 0.36 0.84 0.84zm3.28 0.36v8.72c0 2.48-2.04 4.52-4.52 4.52h-8.72c-2.48 0-4.52-2.04-4.52-4.52v-8.72c0-2.48 2.04-4.52 4.52-4.52h8.72c2.52 0 4.52 2.04 4.52 4.52zm-1.68 0c0-1.56-1.28-2.84-2.84-2.84h-8.72c-1.56 0-2.84 1.28-2.84 2.84v8.72c0 1.56 1.28 2.84 2.84 2.84h8.72c1.6 0 2.88-1.28 2.88-2.84l-0.04-8.72zm-2.56 4.36c0-2.56-2.08-4.64-4.64-4.64s-4.64 2.08-4.64 4.64 2.08 4.64 4.64 4.64 4.64-2.08 4.64-4.64zm-1.68 0c0 1.64-1.32 2.96-2.96 2.96s-2.96-1.32-2.96-2.96 1.32-2.96 2.96-2.96 2.96 1.32 2.96 2.96z"/>
</g>
</svg>
