<?xml version="1.0" encoding="UTF-8"?>
<svg fill="#ffffff" stroke="#ffffff" version="1.1" viewBox="-4.5 0 32 32" xmlns="http://www.w3.org/2000/svg">
<g>
<title>youtube</title>
<path d="m9.72 20.16c-0.8 0-1.32-0.6-1.36-1.44v-5.48c0.04-0.8 0.6-1.4 1.36-1.4 0.24 0 0.48 0.04 0.68 0.16 0.44 0.24 5.24 2.84 5.24 2.84 0.44 0.28 0.68 0.68 0.68 1.12s-0.24 0.84-0.64 1.12c0 0-5.24 2.84-5.28 2.88-0.2 0.12-0.44 0.2-0.68 0.2zm0.32-6.48v4.52 0.08l4.24-2.28s-3.96-2.16-4.24-2.32zm1.48 10.8c-2.44 0-5.4-0.2-7.72-0.48-2-0.24-3.12-1.28-3.44-3.16-0.24-1.24-0.36-2.96-0.36-4.84s0.12-3.6 0.32-4.84c0.32-1.88 1.44-2.92 3.44-3.16 2.32-0.28 5.28-0.48 7.72-0.48s5.4 0.2 7.72 0.48c2 0.24 3.12 1.28 3.44 3.16 0.2 1.24 0.32 2.96 0.32 4.84s-0.12 3.6-0.32 4.84c-0.32 1.88-1.44 2.92-3.44 3.16-2.28 0.28-5.24 0.48-7.68 0.48zm0-15.32c-2.36 0-5.24 0.16-7.48 0.44-1.48 0.2-1.88 0.88-2.04 1.84-0.2 1.2-0.32 2.8-0.32 4.56s0.12 3.36 0.32 4.52c0.16 0.96 0.6 1.64 2.04 1.84 2.24 0.28 5.12 0.44 7.48 0.44s5.24-0.16 7.48-0.44c1.48-0.2 1.88-0.88 2.04-1.84 0.2-1.16 0.32-2.76 0.32-4.52s-0.12-3.36-0.32-4.52c-0.16-0.96-0.6-1.64-2.04-1.84-2.24-0.28-5.12-0.48-7.48-0.48z"/>
</g>
</svg>
